[img] http://www.shotpix.com/images/25464032422865967418.jpg [/img]

General
Complete name                            : Nari Narain - Hisham Abbas with Jayashri.avi
Format                                   : AVI
Format/Info                              : Audio Video Interleave
File size                                : 67.0 MiB
Duration                                 : 4mn 22s
Overall bit rate                         : 2 140 Kbps
Writing application                      : Lavf52.39.1

Video
ID                                       : 0
Format                                   : xvid
Codec ID                                 : xvid
Duration                                 : 4mn 22s
Bit rate                                 : 2 064 Kbps
Width                                    : 610 pixels
Height                                   : 472 pixels
Display aspect ratio                     : 1.292
Frame rate                               : 25.000 fps
Bits/(Pixel*Frame)                       : 0.287
Stream size                              : 64.5 MiB (96%)

Audio
ID                                       : 1
Format                                   : MPEG Audio
Format version                           : Version 1
Format profile                           : Layer 3
Mode                                     : Joint stereo
Codec ID                                 : 55
Codec ID/Hint                            : MP3
Duration                                 : 4mn 22s
Bit rate mode                            : Constant
Bit rate                                 : 64.0 Kbps
Channel(s)                               : 2 channels
Sampling rate                            : 44.1 KHz
Compression mode                         : Lossy
Stream size                              : 2.00 MiB (3%)
Alignment                                : Aligned on interleaves
Interleave, duration                     : 26 ms (0.65 video frame)

[img] http://www.shotpix.com/images/15810622012594229828.gif [/img]